<mxfile host="app.diagrams.net" modified="2024-04-15T17:56:14.167Z" agent="Mozilla/5.0 (Windows NT 10.0; Win64; x64) AppleWebKit/537.36 (KHTML, like Gecko) Chrome/123.0.0.0 Safari/537.36" version="24.2.5" etag="jKR1hrauAU7_qyZEObBg" type="github">
  <diagram name="Pagina-1" id="xwehUvV04-e0pNIcXJOw">
    <mxGraphModel>
      <root>
        <mxCell id="0" />
        <mxCell id="1" parent="0" />
      </root>
    </mxGraphModel>
  </diagram>
</mxfile>
